#!OML:ASF H:\BreakDance\Project 1\Capture day 1\Session 1\Male.ASF
:FULLY-SPECIFIED
:DEGREES
1623
root 7.2058 15.235 1.45909 558.377 -67.0185 208.535
lowerback 15.2187 -0.758304 -2.83031
upperback 6.90814 -2.08593 -4.90915
thorax -1.30425 -1.24058 -3.21427
lowerneck -6.84681 7.22066 1.65629
upperneck -17.4655 9.06553 -1.64136
head -4.44142 4.16612 -0.9569
rclavicle -1.49486e-013 -7.87187e-014
rhumerus 77.616 2.02228 -43.5968
rradius 53.2039
rwrist -39.8936
rhand -15.8692 -19.3702
rfingers 7.12502
rthumb 10.3264 -49.0967
lclavicle -1.49486e-013 -7.87187e-014
lhumerus 29.117 -16.3542 48.8898
lradius 12.9993
lwrist 1.7914
lhand -15.5965 -12.6494
lfingers 7.12502
lthumb 10.5894 17.0638
rfemur -67.3375 -15.8844 34.7679
rtibia 68.0538
rfoot -19.9976 14.2648
rtoes -20.2651
lfemur -89.6912 13.515 -1.85268
ltibia 38.4146
lfoot -5.66837 5.84409
ltoes -35.0761
1624
root 7.24701 15.1411 1.49163 558.739 -66.3429 208.498
lowerback 15.3731 -0.772664 -2.94784
upperback 6.96752 -2.14463 -4.97603
thorax -1.32387 -1.27648 -3.20728
lowerneck -6.66629 7.37402 1.63018
upperneck -17.6261 9.25893 -1.88572
head -4.51989 4.27393 -1.04923
rclavicle 6.36111e-014 5.48646e-014
rhumerus 78.1508 1.40832 -43.1652
rradius 53.8952
rwrist -40.794
rhand -16.7256 -19.6352
rfingers 7.12502
rthumb 9.5001 -49.4011
lclavicle 6.36111e-014 5.48646e-014
lhumerus 29.334 -15.3883 49.1287
lradius 13.2042
lwrist 2.17628
lhand -16.9231 -12.8063
lfingers 7.12502
lthumb 9.30952 16.9681
rfemur -70.4844 -16.2214 35.286
rtibia 71.999
rfoot -18.1496 15.7262
rtoes -17.9548
lfemur -91.9772 14.4013 -3.13935
ltibia 41.8397
lfoot -5.93291 3.35065
ltoes -34.4345
1625
root 7.2841 15.024 1.5284 558.748 -65.675 208.653
lowerback 15.5743 -0.801605 -2.86119
upperback 7.03604 -2.19637 -5.03295
thorax -1.36502 -1.30516 -3.30539
lowerneck -6.43182 7.53688 1.62596
upperneck -17.7999 9.45902 -2.19247
head -4.60833 4.38767 -1.16972
rclavicle 5.40694e-014 9.38264e-014
rhumerus 78.54 0.863308 -42.7895
rradius 54.7769
rwrist -41.6088
rhand -17.6098 -19.9866
rfingers 7.12502
rthumb 8.64692 -49.7895
lclavicle 5.40694e-014 9.38264e-014
lhumerus 29.296 -14.2095 49.6296
lradius 13.4987
lwrist 2.38753
lhand -18.0092 -12.7945
lfingers 7.12502
lthumb 8.26145 17.024
rfemur -73.506 -16.5421 35.8067
rtibia 76.0139
rfoot -16.8689 16.6726
rtoes -16.6571
lfemur -94.3849 15.1908 -4.21429
ltibia 46.0143
lfoot -6.60169 1.18341
ltoes -33.7825
1626
root 7.31692 14.8837 1.56782 558.453 -64.9761 208.933
lowerback 15.8048 -0.83561 -2.64448
upperback 7.1382 -2.23875 -5.08371
thorax -1.39003 -1.32802 -3.47217
lowerneck -6.19083 7.71714 1.64523
upperneck -17.9799 9.67579 -2.54338
head -4.69594 4.51071 -1.31054
rclavicle -6.36111e-014 -6.04305e-014
rhumerus 78.8297 0.396212 -42.5139
rradius 55.836
rwrist -42.2663
rhand -18.3872 -20.291
rfingers 7.12502
rthumb 7.89663 -50.1235
lclavicle -6.36111e-014 -6.04305e-014
lhumerus 29.1146 -13.0234 50.1842
lradius 13.8055
lwrist 2.68678
lhand -18.8999 -12.5782
lfingers 7.12502
lthumb 7.40182 17.2723
rfemur -76.3667 -16.8507 36.3177
rtibia 80.0444
rfoot -16.198 17.1518
rtoes -16.2918
lfemur -96.8243 15.9386 -5.11311
ltibia 50.8467
lfoot -7.4763 -0.637076
ltoes -32.9606
1627
root 7.34575 14.7224 1.608 557.932 -64.2303 209.248
lowerback 16.0722 -0.868914 -2.38759
upperback 7.27595 -2.27702 -5.11775
thorax -1.39726 -1.34963 -3.64476
lowerneck -5.97527 7.91704 1.67326
upperneck -18.1431 9.91333 -2.92467
head -4.76914 4.64568 -1.46242
rclavicle 3.81667e-014 8.5875e-014
rhumerus 79.0548 0.0385844 -42.3414
rradius 57.063
rwrist -42.7176
rhand -18.9048 -20.522
rfingers 7.12502
rthumb 7.39708 -50.3727
lclavicle 3.81667e-014 8.5875e-014
lhumerus 28.8391 -11.9825 50.6671
lradius 14.0684
lwrist 3.23947
lhand -19.6344 -12.148
lfingers 7.12502
lthumb 6.6928 17.7262
rfemur -79.0397 -17.1663 36.7943
rtibia 84.0334
rfoot -15.996 17.281
rtoes -16.2815
lfemur -99.2102 16.6723 -5.86725
ltibia 56.1988
lfoot -8.34297 -2.13574
ltoes -31.9182
1628
root 7.37142 14.5426 1.64724 557.32 -63.4303 209.493
lowerback 16.3765 -0.882867 -2.16738
upperback 7.42143 -2.29836 -5.14337
thorax -1.41288 -1.36459 -3.79014
lowerneck -5.79732 8.12294 1.72039
upperneck -18.2585 10.1565 -3.30879
head -4.81483 4.78356 -1.61542
rclavicle -1.39944e-013 -1.7016e-013
rhumerus 79.1792 -0.199167 -42.2664
rradius 58.4499
rwrist -42.9451
rhand -19.1017 -20.707
rfingers 7.12502
rthumb 7.20702 -50.5643
lclavicle -1.39944e-013 -1.7016e-013
lhumerus 28.5093 -11.2733 50.9783
lradius 14.2513
lwrist 4.16981
lhand -20.2397 -11.5283
lfingers 7.12502
lthumb 6.10845 18.3636
rfemur -81.5647 -17.4997 37.2165
rtibia 87.9375
rfoot -16.0505 17.1959
rtoes -16.0067
lfemur -101.515 17.4163 -6.54367
ltibia 61.9125
lfoot -9.02181 -3.37914
ltoes -30.9748
1629
root 7.39284 14.3509 1.68447 556.646 -62.5722 209.594
lowerback 16.7869 -0.864754 -2.04604
upperback 7.5689 -2.30064 -5.15661
thorax -1.4763 -1.37377 -3.86775
lowerneck -5.6357 8.33209 1.74729
upperneck -18.3196 10.4088 -3.66206
head -4.83856 4.92754 -1.75242
rclavicle 4.77083e-014 1.74931e-014
rhumerus 79.1873 -0.313418 -42.2257
rradius 60.0025
rwrist -42.9898
rhand -19.021 -20.8442
rfingers 7.12502
rthumb 7.28492 -50.6988
lclavicle 4.77083e-014 1.74931e-014
lhumerus 28.0999 -10.9716 51.0983
lradius 14.3635
lwrist 5.51334
lhand -20.7709 -10.8007
lfingers 7.12502
lthumb 5.59558 19.1054
rfemur -83.8788 -17.8856 37.548
rtibia 91.6937
rfoot -16.1631 17.0632
rtoes -14.9851
lfemur -103.611 18.1648 -7.16899
ltibia 67.8266
lfoot -9.43742 -4.45399
ltoes -30.4152
1630
root 7.41098 14.1483 1.71947 556.054 -61.6846 209.489
lowerback 17.2484 -0.81667 -2.06949
upperback 7.68974 -2.28846 -5.14615
thorax -1.58707 -1.37927 -3.83912
lowerneck -5.4822 8.53998 1.72431
upperneck -18.3262 10.6678 -3.96401
head -4.84491 5.07736 -1.86184
rclavicle 3.49861e-014 5.56597e-014
rhumerus 79.0676 -0.331634 -42.152
rradius 61.71
rwrist -42.8875
rhand -18.7275 -20.9284
rfingers 7.12502
rthumb 7.56816 -50.773
lclavicle 3.49861e-014 5.56597e-014
lhumerus 27.5187 -10.8268 51.2578
lradius 14.4858
lwrist 6.94638
lhand -21.2431 -10.0504
lfingers 7.12502
lthumb 5.13963 19.8672
rfemur -86.1096 -18.3327 37.8012
rtibia 95.2753
rfoot -16.1504 17.0469
rtoes -12.9698
lfemur -105.544 18.9122 -7.80616
ltibia 73.8006
lfoot -9.58314 -5.47158
ltoes -30.6857
1631
root 7.4259 13.9367 1.75258 555.635 -60.7766 209.113
lowerback 17.7483 -0.730977 -2.27945
upperback 7.77697 -2.25952 -5.11247
thorax -1.74453 -1.38046 -3.68176
lowerneck -5.35352 8.7413 1.65606
upperneck -18.2783 10.9246 -4.21754
head -4.83099 5.2277 -1.94396
rclavicle 4.77083e-014 7.4743e-014
rhumerus 78.8099 -0.301316 -41.9985
rradius 63.5662
rwrist -42.707
rhand -18.3532 -20.9677
rfingers 7.12502
rthumb 7.92943 -50.799
lclavicle 4.77083e-014 7.4743e-014
lhumerus 26.7751 -10.8436 51.4794
lradius 14.6264
lwrist 8.51085
lhand -21.6691 -9.35643
lfingers 7.12502
lthumb 4.72827 20.5708
rfemur -88.3125 -18.8409 37.9578
rtibia 98.6505
rfoot -15.9242 17.2738
rtoes -10.0542
lfemur -107.306 19.6495 -8.51089
ltibia 79.7156
lfoot -9.52343 -6.53381
ltoes -31.9181
1632
root 7.43751 13.717 1.78447 555.438 -59.8625 208.456
lowerback 18.2528 -0.61481 -2.62605
upperback 7.8373 -2.21981 -5.10584
thorax -1.92809 -1.37886 -3.47772
lowerneck -5.27531 8.93644 1.61553
upperneck -18.1868 11.1759 -4.42955
head -4.79158 5.37113 -2.01124
rclavicle -9.22361e-014 -1.63799e-013
rhumerus 78.3916 -0.303591 -41.807
rradius 65.5486
rwrist -42.4631
rhand -17.982 -20.9675
rfingers 7.12502
rthumb 8.28768 -50.785
lclavicle -9.22361e-014 -1.63799e-013
lhumerus 25.9304 -11.0416 51.6998
lradius 14.7942
lwrist 10.2545
lhand -22.0643 -8.77822
lfingers 7.12502
lthumb 4.3467 21.1572
rfemur -90.5451 -19.4011 38.0281
rtibia 101.795
rfoot -15.4724 17.8097
rtoes -6.67376
lfemur -108.915 20.3671 -9.31972
ltibia 85.4707
lfoot -9.30783 -7.74056
ltoes -33.789
